<?xml version="1.0" encoding="UTF-8" standalone="no"?>
<!-- Created with Inkscape (http://www.inkscape.org/) -->

<svg
   version="1.1"
   id="svg844"
   xml:space="preserve"
   width="1066.6667"
   height="1066.6667"
   viewBox="0 0 1066.6667 1066.6667"
   sodipodi:docname="cracked-egg-pubicdomainvectors.org.svg"
   inkscape:version="1.1.2 (b8e25be833, 2022-02-05)"
   xmlns:inkscape="http://www.inkscape.org/namespaces/inkscape"
   xmlns:sodipodi="http://sodipodi.sourceforge.net/DTD/sodipodi-0.dtd"
   xmlns="http://www.w3.org/2000/svg"
   xmlns:svg="http://www.w3.org/2000/svg"><defs
     id="defs848"><clipPath
       clipPathUnits="userSpaceOnUse"
       id="clipPath858"><path
         d="M 0,800 H 800 V 0 H 0 Z"
         id="path856" /></clipPath></defs><sodipodi:namedview
     id="namedview846"
     pagecolor="#ffffff"
     bordercolor="#666666"
     borderopacity="1.0"
     inkscape:pageshadow="2"
     inkscape:pageopacity="0.0"
     inkscape:pagecheckerboard="0"
     showgrid="false"
     inkscape:zoom="0.77906244"
     inkscape:cx="533.33337"
     inkscape:cy="533.33337"
     inkscape:window-width="1920"
     inkscape:window-height="1018"
     inkscape:window-x="-8"
     inkscape:window-y="-8"
     inkscape:window-maximized="1"
     inkscape:current-layer="g850" /><g
     id="g850"
     inkscape:groupmode="layer"
     inkscape:label="cracked-egg-pubicdomainvectors.org"
     transform="matrix(1.3333333,0,0,-1.3333333,0,1066.6667)"><g
       id="g852"><g
         id="g854"
         clip-path="url(#clipPath858)"><path
           d="m 544.358,400.018 c 3.425,-1.914 11.336,-4.897 13.339,-5.717 11.248,-4.613 21.679,-9.76 31.765,-16.567 8.037,-5.427 17.509,-12.31 23.641,-19.841 4.179,-5.135 7.46,-11.702 5.11,-18.354 -2.867,-8.113 -12.56,-11.789 -20.233,-13.92 -9.657,-2.676 -20.119,-4.068 -30.044,-5.506 -9.643,-1.394 -29.574,-3.75 -37.698,-8.668 -0.859,-0.521 -2.705,-1.632 -4.405,-2.781 0.948,-0.496 1.889,-1 2.817,-1.541 4.616,-2.685 8.521,-5.963 11.532,-10.379 10.457,-15.336 5.134,-37.547 -0.538,-53.584 -13.956,-39.431 -108.619,-20.002 -140.975,-20.252 -11.508,-0.088 -23.165,0.135 -34.627,1.194 -7.509,0.695 -15.395,1.767 -22.642,3.886 -8.649,2.528 -18.67,7.438 -19.353,17.532 -0.41,6.074 2.912,11.646 6.665,16.191 0.779,0.939 1.584,1.852 2.413,2.742 -5.166,0.77 -10.346,1.742 -15.232,2.656 -12.667,2.377 -25.301,5.141 -37.819,8.192 -14.898,3.631 -30.168,7.693 -44.599,12.851 -5.309,1.899 -10.87,4.049 -15.819,6.741 -3.848,2.091 -8.344,5.056 -9.631,9.453 -1.728,5.925 -1.733,11.982 1.106,17.58 7.31,14.437 31.126,19.105 45.686,22.213 8.54,1.822 17.504,3.476 25.803,6.142 3.594,1.155 10.689,3.703 12.67,7.174 0.143,0.25 0.783,1.508 0.674,1.834 -0.467,1.387 -5.39,3.471 -6.632,3.949 -5.73,2.209 -12.072,3.7 -18.012,5.321 -10.614,2.896 -26.636,7.191 -31.421,18.113 -4.548,10.377 2.77,21.052 9.536,28.521 6.158,6.801 23.381,11.002 32.152,13.055 16.768,3.929 34.153,6.659 51.214,9.049 15.587,2.187 31.235,4.044 46.896,5.668 10.464,1.089 21.01,2.129 31.51,2.849 5.251,0.357 10.578,0.995 15.677,2.331 3.42,0.898 6.55,2.12 9.824,3.408 4.298,1.691 8.32,3.048 12.879,3.958 6.968,1.389 14.296,1.725 21.388,1.725 6.002,0 12.294,-0.382 18.293,-0.667 12.366,-0.593 24.75,-1.403 37.074,-2.574 12.305,-1.17 25.251,-2.642 37.287,-5.428 7.474,-1.732 21.01,-5.132 22.107,-14.268 0.672,-5.589 -3.59,-9.712 -7.968,-12.458 -4.027,-2.528 -26.118,-16.146 -31.41,-21.823"
           style="fill:#e3d4c3;fill-opacity:1;fill-rule:evenodd;stroke:none"
           id="path860" /><path
           d="m 410.186,451.189 c -26.632,-1.846 -148.351,-13.948 -162.589,-29.893 -41.045,-45.964 63.49,-32.091 48.179,-59.323 -12.148,-21.606 -98.472,-12.295 -87.455,-50.582 3.806,-13.215 107.841,-36.801 133.366,-38.403 8.285,-0.515 -67.687,-43.115 57.11,-42.138 30.386,0.234 127.102,-18.469 139.403,16.795 27.029,77.496 -43.188,52.71 -6.937,74.972 27.318,16.778 139.819,4.334 60.878,58.395 -45.682,31.28 -79.168,15.672 -13.958,57.191 33.381,21.252 -103.266,24.934 -106.736,24.934 -35.754,0 -29.414,-9.741 -61.261,-11.948"
           style="fill:#faf3eb;fill-opacity:1;fill-rule:evenodd;stroke:none"
           id="path862" /><path
           d="m 260.019,652.265 c 18.166,0 35.633,-2.379 51.944,-6.765 l 10.975,-10.06 -15.366,-21.948 -1.463,-30.727 20.486,-11.705 -5.854,-27.802 -12.435,-16.093 10.24,-11.707 22.681,-8.778 -15.363,-31.46 h 17.559 l 19.386,-13.898 25.971,8.045 13.079,-9.702 c -27.779,-39.605 -80.884,-66.382 -141.84,-66.382 -89.697,0 -162.414,57.975 -162.414,129.491 0,71.516 72.717,129.491 162.414,129.491"
           style="fill:#ebb37b;fill-opacity:1;fill-rule:evenodd;stroke:none"
           id="path864" /><path
           d="m 311.963,645.5 10.975,-10.06 -15.366,-21.948 -1.463,-30.727 20.486,-11.705 -5.854,-27.802 -12.435,-16.093 10.24,-11.707 22.681,-8.778 -15.363,-31.46 h 17.559 l 19.386,-13.898 25.971,8.045 13.079,-9.702 -13.812,-6.392 -9.509,-11.705 -26.337,-5.123 -13.901,-12.436 -24.141,-2.927 -19.755,5.854 -27.799,1.464 -15.365,12.436 -15.363,1.462 -10.242,21.949 5.12,16.827 -14.632,24.142 10.974,14.631 -2.194,29.996 13.167,18.29 -0.728,16.826 14.632,5.122 10.973,23.411 16.095,2.927 13.169,8.778 2.925,14.632 z"
           style="fill:#fcd1a6;fill-opacity:1;fill-rule:evenodd;stroke:none"
           id="path866" /><path
           d="m 388.78,469.367 14.104,-8.319 2.334,-1.731 -2.637,-1.22 -13.45,-6.224 -9.257,-11.394 -0.395,-0.485 -0.615,-0.119 -25.875,-5.035 -13.541,-12.112 -0.41,-0.367 -0.535,-0.067 -24.144,-2.924 -0.342,-0.043 -0.344,0.1 -19.566,5.796 -27.592,1.453 -0.557,0.032 -0.44,0.354 -14.959,12.107 -14.844,1.415 -0.981,0.095 -0.417,0.891 -10.24,21.948 -0.281,0.598 0.19,0.631 4.899,16.093 -14.235,23.485 -0.599,0.994 0.695,0.93 10.583,14.112 -2.147,29.361 -0.043,0.614 0.366,0.513 12.82,17.805 -0.708,16.231 -0.052,1.279 1.21,0.423 13.946,4.882 10.664,22.752 0.382,0.805 0.876,0.161 15.722,2.858 12.291,8.194 2.784,13.928 0.198,0.974 0.95,0.322 16.828,5.671 0.959,0.323 0.75,-0.687 9.813,-11.33 -11.386,8.104 -14.916,-5.027 -2.732,-13.657 -0.14,-0.704 -0.595,-0.396 -13.17,-8.78 -0.281,-0.189 -0.371,-0.066 -15.218,-2.768 -10.598,-22.605 -0.307,-0.658 -0.684,-0.239 -13.422,-4.7 0.674,-15.548 0.026,-0.593 -0.349,-0.486 -12.801,-17.778 2.15,-29.382 0.048,-0.633 -0.39,-0.52 -10.277,-13.702 14.028,-23.149 0.399,-0.657 -0.224,-0.733 -4.929,-16.199 9.548,-20.457 14.381,-1.367 0.519,-0.052 0.405,-0.327 14.927,-12.081 27.239,-1.433 0.21,-0.012 0.189,-0.055 19.409,-5.754 23.264,2.823 13.489,12.069 0.362,0.321 0.462,0.09 25.721,5.002 9.116,11.217 0.252,0.314 0.362,0.166 11.174,5.173 z"
           style="fill:#ffe8d1;fill-opacity:1;fill-rule:evenodd;stroke:none"
           id="path868" /><path
           d="m 694.186,540.745 c 9.899,-39.587 3.474,-79.361 -21.394,-108.546 -42.233,-49.564 -123.072,-51.476 -188.74,-7.504 l 0.524,13.213 21.571,8.425 12.082,17.18 18.299,6.425 -1.105,15.89 20.636,10.293 -2.712,19.336 20.485,-3.66 15.728,18.29 22.49,-5.034 18.623,14.239 22.903,-7.741 9.509,10.974 20.919,-3.102 z"
           style="fill:#ebb37b;fill-opacity:1;fill-rule:evenodd;stroke:none"
           id="path870" /><path
           d="m 484.052,424.695 0.524,13.213 21.571,8.425 12.082,17.18 18.299,6.425 -1.105,15.89 20.636,10.293 -2.712,19.336 20.485,-3.66 15.728,18.29 22.49,-5.034 18.623,14.239 22.903,-7.741 9.509,10.974 20.919,-3.102 10.182,1.322 -6.592,-15.046 -10.975,-2.561 -4.389,-14.998 -15.729,-4.39 -8.414,-19.023 -13.901,-3.655 -7.316,-14.999 -12.072,-1.829 -16.46,-10.243 -23.777,-2.924 -6.582,-15.73 -15,-4.756 -11.34,0.732 -17.192,-10.243 -22.314,5.12 z"
           style="fill:#fcd1a6;fill-opacity:1;fill-rule:evenodd;stroke:none"
           id="path872" /><path
           d="m 684.004,539.423 10.182,1.322 -5.014,-15.735 -0.348,-0.798 -0.841,-0.195 -9.995,-2.333 -4.105,-14.023 -0.269,-0.924 -0.926,-0.257 -14.937,-4.168 -8.085,-18.28 -0.336,-0.757 -0.805,-0.215 -13.131,-3.453 -6.971,-14.289 -0.398,-0.817 -0.898,-0.135 -11.724,-1.777 -16.153,-10.052 -0.327,-0.203 -0.376,-0.047 -22.781,-2.803 -6.195,-14.799 -0.311,-0.745 -0.763,-0.241 -14.998,-4.756 -0.301,-0.095 -0.326,0.022 -10.814,0.697 -16.728,-9.964 -0.598,-0.357 -0.669,0.152 -22.047,5.06 -17.821,-1.485 -1.941,-0.164 2.322,15.099 1.277,-11.332 16.139,1.348 0.257,0.019 0.27,-0.062 21.642,-4.965 16.595,9.885 0.464,0.277 0.526,-0.034 11.015,-0.71 13.933,4.418 6.274,14.987 0.39,0.928 0.994,0.125 23.402,2.878 16.135,10.038 0.304,0.191 0.35,0.053 11.172,1.695 6.918,14.18 0.346,0.71 0.769,0.202 13.096,3.446 8.078,18.261 0.328,0.744 0.791,0.222 14.806,4.13 4.117,14.075 0.286,0.973 0.979,0.23 10.133,2.364 4.558,10.405 z"
           style="fill:#ffe8d1;fill-opacity:1;fill-rule:evenodd;stroke:none"
           id="path874" /><path
           d="m 449.497,343.891 c 45.937,0 83.401,13.966 83.401,31.093 0,17.123 -37.464,31.093 -83.401,31.093 -45.936,0 -83.402,-13.97 -83.402,-31.093 0,-17.127 37.466,-31.093 83.402,-31.093"
           style="fill:#ffcc00;fill-opacity:1;fill-rule:evenodd;stroke:none"
           id="path876" /><path
           d="m 436.327,365.811 c 27.602,0 50.116,8.392 50.116,18.681 0,10.291 -22.514,18.683 -50.116,18.683 -27.599,0 -50.114,-8.392 -50.114,-18.683 0,-10.289 22.515,-18.681 50.114,-18.681"
           style="fill:#ffe16b;fill-opacity:1;fill-rule:evenodd;stroke:none"
           id="path878" /><path
           d="m 466.319,255.186 c 12.778,0.095 29.204,37.494 44.963,37.494 20.512,0 20.245,-11.119 16.797,-27.991 -5.944,-29.087 -15.156,-16.421 -42.132,-23.441 -4.2,-1.096 -40.525,-8.562 -41.668,-4.631 -4.591,15.805 6.192,15.377 18.592,19.084 0.555,0.166 2.791,-0.521 3.448,-0.515 m 47.19,84.314 c 10.826,5.682 19.04,11.281 30.725,15.238 14.306,4.844 8.105,19.453 42.924,15.918 0.953,-0.097 10.005,-14.808 -3.688,-18.353 -15.485,-4.008 -18.957,-4.352 -31.553,-13.324 -1.616,-1.153 -40.29,-16.622 -39.87,-6.063 0.179,4.557 -0.687,5.457 1.462,6.584 m -99.313,-8.047 c -4.966,-1.455 -29.624,6.393 -35.458,10.274 -14.636,9.734 -19.705,9.101 -37.792,8.046 -8.119,-0.472 -1.776,-9.761 -22.824,-14.392 -3.923,-0.861 -8.95,-8.627 4.124,-12.811 22.225,-7.111 25.194,-6.113 48.204,-6.113 4.359,0 20.078,-8.031 30.705,-9.387 15.065,-1.924 25.672,-6.615 30.478,13.471 1.053,4.404 3.62,17.086 -17.437,10.912 m 11.888,110.324 c -3.445,-4.531 -31.512,-6.933 -11.038,-13.482 11.798,-3.772 29.149,0.76 39.757,6.135 2.415,1.225 19.535,9.176 21.76,8.957 5.298,5.847 -40.219,11.891 -50.479,-1.61"
           style="fill:#fffdfa;fill-opacity:1;fill-rule:evenodd;stroke:none"
           id="path880" /></g></g></g></svg>
