<svg id="Слой_1" data-name="Слой 1" xmlns="http://www.w3.org/2000/svg" viewBox="0 0 283.46 283.46"><defs><style>.cls-1{fill:#f8f7f7;}.cls-10,.cls-2,.cls-3,.cls-4,.cls-6,.cls-7,.cls-8{fill:none;stroke-miterlimit:10;}.cls-2,.cls-7{stroke:#fcdcd3;}.cls-2{stroke-width:3.04px;}.cls-10,.cls-3{stroke:#9bcddd;}.cls-3{stroke-width:2.45px;}.cls-4{stroke:#5da9bc;stroke-width:3.71px;}.cls-5{fill:#d6c3d4;}.cls-6{stroke:#cbe0ef;stroke-width:2.73px;}.cls-7{stroke-linecap:round;stroke-width:2.71px;}.cls-8{stroke:#d6c3d4;}.cls-10,.cls-8{stroke-width:3px;}.cls-9{fill:#5da9bc;}.cls-11{fill:#fdf5c6;}.cls-12{fill:#ed8b93;}</style></defs><rect class="cls-1" width="283.46" height="283.46"/><path class="cls-2" d="M30.37,18.22q1.27,18.44,2.56,36.86a2.93,2.93,0,0,0,4.47,2.2L71.52,36.36a2.79,2.79,0,0,0-.36-5L34.47,15.45A2.9,2.9,0,0,0,30.37,18.22Z" transform="translate(-0.15 -0.19)"/><path class="cls-3" d="M158.74,46.6c.83-2.12,2.57-3.56,4.35-3.58,2.6,0,4.63,2.91,4.51,5-.2,3.69-6.87,7.36-12.22,6.27-6.29-1.28-10.32-9-8.58-14.79,2.12-7,12.53-9.82,20.15-7.74A17.12,17.12,0,0,1,179.64,47c.47,8.7-6.89,15.09-13.44,17.25-10.57,3.49-23.42-2.81-27.61-13C134.32,40.78,139.7,28,151.65,22.65" transform="translate(-0.15 -0.19)"/><path class="cls-4" d="M34.78,121l32.57,12.5A3.5,3.5,0,0,1,69.23,138L57,170.47a3.52,3.52,0,0,1-4.49,2.17l-33.35-12.8a3.5,3.5,0,0,1-1.85-4.64l13-32.13A3.5,3.5,0,0,1,34.78,121Z" transform="translate(-0.15 -0.19)"/><path class="cls-5" d="M178.44,104.63l34.14-7.15a3.5,3.5,0,0,1,4,2.81L224,134.16a3.52,3.52,0,0,1-2.59,4.26l-35,7.33a3.5,3.5,0,0,1-4.07-2.9l-6.49-34A3.51,3.51,0,0,1,178.44,104.63Z" transform="translate(-0.15 -0.19)"/><circle class="cls-6" cx="246.56" cy="59.43" r="21.26"/><line class="cls-7" x1="166.33" y1="200.51" x2="204.75" y2="162.08"/><ellipse class="cls-8" cx="117.8" cy="170.69" rx="30.52" ry="21.26" transform="translate(-75.43 94.79) rotate(-33.98)"/><ellipse class="cls-9" cx="240.99" cy="195.03" rx="21.26" ry="30.52"/><path class="cls-10" d="M15.8,265.52l2.13-15.8,14.89,4.87.91-15.2,13.37,4.26,1.82-14.29,11.55,5.47" transform="translate(-0.15 -0.19)"/><circle class="cls-11" cx="203.59" cy="255.91" r="6.26"/><circle class="cls-11" cx="213.21" cy="236.12" r="4.87"/><circle class="cls-11" cx="229.93" cy="256.7" r="7.05"/><circle class="cls-12" cx="93.23" cy="117.07" r="4.58"/><circle class="cls-12" cx="100.27" cy="102.59" r="3.56"/><circle class="cls-12" cx="112.49" cy="117.64" r="5.15"/><circle class="cls-12" cx="121.03" cy="247.25" r="21.26"/><path class="cls-8" d="M53.72,99l2.13-15.8L70.73,88l.92-15.19L85,77.08,86.84,62.8l11.55,5.47" transform="translate(-0.15 -0.19)"/><circle class="cls-9" cx="206.84" cy="38.51" r="5.44"/><circle class="cls-9" cx="204.36" cy="19.54" r="4.23"/><circle class="cls-9" cx="226.35" cy="26.48" r="6.13"/></svg>